<svg height="2500" viewBox="161 39.63500000000021 1731.4429999999998 1964.7720000000002" width="2199" xmlns="http://www.w3.org/2000/svg"><g fill-rule="evenodd"><path d="M888.87 1740.47c-23.867 3.909-43.079 12.351-61.802 27.156-18.071 14.288-33.644 37.996-40.469 61.609-8.057 27.87-7.218 64.545 2.098 91.765 11.804 34.49 36.941 59.725 71.615 71.895 17.804 6.249 26.673 7.523 52.188 7.498 19.326-.019 24.9-.373 34.898-2.216 22.244-4.101 44.022-13.136 61.131-25.362l7.438-5.315.017-53.25.016-53.25h-92v40h46v37.806l-5.509 3.656c-11.446 7.598-21.007 10.756-38.15 12.601-26.797 2.885-51.226-5.023-68.3-22.11-8.312-8.319-13.54-16.47-18.044-28.129-13.433-34.778-3.166-80.968 22.749-102.344 14.353-11.84 30.292-17.46 49.546-17.473 23.979-.016 40.334 7.023 59.267 25.508l5.651 5.517 16.886-16.124 16.886-16.124-1.95-2.739c-2.928-4.112-14.043-14.238-21.358-19.458-13.162-9.392-30.107-16.546-47.674-20.128-10.795-2.2-40.256-2.77-51.13-.989M163 1869.902V1995h51.894c54.908 0 65.942-.598 83.526-4.527 37.059-8.281 56.083-32.268 54.305-68.473-1.534-31.25-22.792-51.973-59.96-58.452l-7.265-1.266 5-.669c22.417-3 39.632-16.643 46.661-36.981 2.291-6.63 2.46-23.777.317-32.172-4.864-19.055-18.228-32.764-39.508-40.53-15.922-5.811-19.4-6.101-79.72-6.636l-55.25-.49zm253 .098v125h50v-94.043l19.25.271 19.249.272 23.576 46.5 23.576 46.5 27.675.266c15.221.146 27.674-.009 27.674-.344s-12.375-22.82-27.5-49.967-27.5-49.541-27.5-49.764c0-.224 2.716-2.083 6.035-4.132 22.581-13.938 34.93-34.888 36.622-62.131 1.054-16.981-2.524-33.807-9.836-46.248-1.827-3.107-6.789-9.116-11.027-13.353-6.342-6.34-9.529-8.603-18-12.779-20.037-9.877-29.835-11.027-94.044-11.039L416 1745zm251-.017V1995h51.008l-.254-124.75-.254-124.75-25.25-.267-25.25-.267zm486.656-124.236c-.263.426-20.511 55.445-44.994 122.264-24.484 66.819-44.987 122.726-45.564 124.239l-1.048 2.75H1116.525l9.815-29.5 9.814-29.5H1232.525l9.815 29.5 9.814 29.5h53.8l-4.002-11.25c-2.2-6.187-22.349-62.325-44.775-124.75l-40.774-113.5-31.134-.264c-17.123-.145-31.349.085-31.613.511M1361 1870.071v125.072l58.25-.445c46.322-.353 59.896-.753 66.288-1.956 36.735-6.914 62.207-21.003 79.528-43.99 16.458-21.842 23.298-44.721 23.245-77.752-.066-40.723-10.622-69.701-33.274-91.343-13.368-12.771-27.054-20.569-46.537-26.516-22.659-6.917-37.475-8.106-101.25-8.126L1361 1745zm293-.071v125h156.673l5.559-22 5.558-22H1705v-63h79.525l5.274-20.25c2.9-11.138 5.257-20.588 5.237-21s-20.286-.75-45.036-.75h-45v-57h105.606l5.603-22 5.602-22H1654zm-1442-54.425v32.574l25.75-.357c24.299-.337 26.086-.49 31.719-2.728 7.773-3.088 15.537-10.698 17.855-17.501 2.119-6.22 2.168-17.762.101-23.829-3.32-9.744-13.394-17.263-26.445-19.738-2.889-.548-15.092-.996-27.116-.996H212zm254 7.986v37.562l25.75-.312c24.625-.297 25.98-.415 31.01-2.689 6.865-3.102 15.395-12.247 18.054-19.355 6.779-18.117 1.29-37.421-13.389-47.093-7.17-4.724-13.637-5.674-38.635-5.674H466zM1412 1870v81l21.75-.008c33.682-.013 45.952-1.926 62.25-9.704 8.108-3.87 10.766-5.81 18.144-13.251 6.941-7 9.44-10.373 12.684-17.127 6.86-14.279 7.681-18.699 7.604-40.91-.063-18.305-.235-20.051-2.811-28.5-6.354-20.841-18.174-34.785-36.809-43.426-15.359-7.121-28.332-9.03-61.562-9.057L1412 1789zm-228-75.823c0 .317-7.858 23.807-17.463 52.2L1149.074 1898h70.764l-17.045-51.25c-14.594-43.882-18.793-55.628-18.793-52.573m-971.504 89.972c-.287.748-.403 17.558-.259 37.356l.263 35.995 21 .293c36.977.516 47.466-1.707 58.173-12.329 5.039-5 6.483-7.191 7.863-11.939 2.398-8.251 1.721-22.31-1.385-28.718-4.523-9.333-13.229-15.876-25.884-19.454-8.018-2.267-58.969-3.293-59.771-1.204"/><path d="M462.504 522.75c4.131 42.019 33.461 75.15 73.334 82.836 6.24 1.202 60.445 1.414 362.25 1.414H1253v-91H461.841zm0 177c1.574 16.008 7.479 33.03 15.584 44.923 4.759 6.984 15.454 17.864 22.568 22.96 8.072 5.781 21.001 11.776 31.451 14.584l8.393 2.255 356.25.277 356.25.278V693H461.841zm-.133 171.458c-.241.39.027 4.448.595 9.018 4.818 38.77 30.894 68.942 68.308 79.035l8.226 2.219 356.75.27 356.75.269V870.5H857.904c-217.302 0-395.292.319-395.533.708m.132 182.542c2.485 22.108 7.96 35.893 20.545 51.73 10.861 13.668 27.102 24.453 45.501 30.216l8.951 2.804 357.75.26 357.75.259V1048H461.856zm.008 178c4.124 41.517 33.158 74.532 72.697 82.665 6.951 1.429 42.572 1.585 362.75 1.585H1253v-91H461.841zm-.007 177c2.189 22.27 10.391 40.621 25.145 56.261 15.088 15.994 33.536 25.148 56.325 27.948 5.725.703 122.1 1.041 358.75 1.041H1253v-92H461.841zM666.485 1870c0 69.025.119 97.263.265 62.75s.146-90.988 0-125.5c-.146-34.513-.265-6.275-.265 62.75m-454.037-54.5c-.001 18.15.134 25.716.3 16.814.165-8.903.166-23.753.001-33-.166-9.248-.301-1.964-.301 16.186m1210.802-25.753c6.463.174 17.037.174 23.5 0s1.175-.317-11.75-.317-18.213.143-11.75.317M1016.466 1914c0 29.425.127 41.463.283 26.75s.156-38.787 0-53.5-.283-2.675-.283 26.75m-804.01-29.745c-.265.69-.363 17.452-.219 37.25l.263 35.995 23.5.027 23.5.027-23.25-.295-23.25-.295v-72.928l23.75-.287 23.75-.287-23.781-.231c-18.324-.178-23.892.057-24.263 1.024m1511.727 4.494c10.826.161 28.826.161 40 0 11.175-.161 2.317-.293-19.683-.293-22-.001-31.142.131-20.317.293m-300.376 61.998c6.769.174 17.569.173 24-.001s.893-.315-12.307-.315c-13.2.001-18.462.143-11.693.316" fill="#106db6"/><path d="M1427.735 373.301C1372.315 418.51 1310.334 469 1290.001 485.5l-36.969 30-.016 45.791-.016 45.791 46.25-52.827c25.438-29.054 48.5-55.506 51.25-58.782 5.315-6.331 172.046-197.06 176.341-201.723 1.393-1.512 2.336-2.727 2.096-2.699-.24.027-45.781 37.04-101.202 82.25m42.537 142.504c-31.475 25.682-93.209 75.945-137.188 111.695l-79.96 65-.062 45.95c-.036 26.548.31 45.549.819 45 .485-.522 40.872-46.701 89.75-102.618 188.354-215.483 185.287-211.956 184.202-211.777-.183.03-26.085 21.068-57.561 46.75m-1.143 177.829a180280.911 180280.911 0 0 1-138.25 112.933L1253 870.115v91.34l2.377-2.478c1.826-1.903 136.282-155.524 265.436-303.27 5.189-5.936 9.266-10.943 9.061-11.126-.206-.183-27.541 21.89-60.745 49.053M1514 834.119c-7.975 6.599-69.963 57.301-137.75 112.671L1253 1047.463v91.004l3.373-3.484c1.855-1.915 63.345-72.108 136.645-155.983s134.186-153.513 135.302-154.75c4.523-5.017-.589-1.493-14.32 9.869m-54.137 221.631a176400.318 176400.318 0 0 1-138.146 112.75l-68.698 56-.01 45.95c-.005 25.604.371 45.529.848 45 3.357-3.719 273.936-313.368 275.015-314.725.755-.949 1.163-1.725.906-1.725s-31.719 25.537-69.915 56.75m-68.57 233.074L1253.105 1401.5l-.053 45.964c-.044 38.828.159 45.737 1.31 44.5 7.997-8.601 275.73-315.205 275.47-315.465-.193-.194-62.536 50.352-138.539 112.325M162.485 1870c0 69.025.119 97.263.265 62.75s.146-90.988 0-125.5c-.146-34.513-.265-6.275-.265 62.75m60.819-86.253c5.943.177 15.393.176 21-.002 5.608-.178.746-.323-10.804-.322s-16.138.147-10.196.324M1412.477 1870c0 44.275.123 62.388.273 40.25.15-22.137.15-58.362 0-80.5s-.273-4.025-.273 40.25m-443.06 49.5c.001 10.45.149 14.589.329 9.198s.179-13.941-.002-19-.328-.648-.327 9.802" fill="#1a98d5"/><path d="M1559 41.593c-49.156 5.892-96.434 24.133-136.337 52.603-13.883 9.905-22.338 17.113-36.496 31.111-67.48 66.717-98.06 160.062-83.11 253.693 3.671 22.988 12.624 53.163 21.386 72.074l2.271 4.902 88.393-72.144c48.616-39.68 94.243-76.901 101.393-82.713 7.15-5.813 11.65-8.992 10-7.065s-41.925 47.96-89.5 102.296-86.645 99.197-86.823 99.69c-.426 1.185 11.875 17.709 20.961 28.155 14.95 17.19 39.695 39.64 42.079 38.176 1.137-.699 106.535-86.483 112.753-91.771 2.274-1.934 2.353-1.943 1-.118-.809 1.09-21.852 25.29-46.762 53.778-24.911 28.488-45.532 52.422-45.825 53.185-.897 2.336 26.521 17.517 46.701 25.859 53.174 21.982 114.37 27.766 171.463 16.206 47.332-9.584 92.724-31.602 130.453-63.278 11.419-9.586 30.931-29.53 40.339-41.232 16.574-20.613 34.244-51.192 44.112-76.337 19.883-50.668 24.992-110.215 14.078-164.114-15.176-74.956-59.421-141.022-123.529-184.456-39.616-26.84-83.157-42.919-131.558-48.581-16.052-1.877-51.458-1.835-67.442.081M887 1738.471c-35.946 6.07-66.573 25.412-85.455 53.968-15.877 24.013-22.539 47.237-22.535 78.561.003 26.664 3.933 45.073 13.984 65.5 7.115 14.462 13.175 22.653 24.92 33.686 17.789 16.71 42.932 28.051 70.408 31.758 10.065 1.359 37.784 1.36 48.704.003 29.827-3.706 53.911-13.124 76.224-29.806l4.75-3.552V1859h-96v44h46V1936.987l-4.25 3.137c-11.35 8.376-27.679 12.841-47.042 12.863-24.869.028-42.538-6.839-58.001-22.542-14.684-14.912-21.929-34.496-21.99-59.445-.044-17.76 2.876-30.398 10.395-45 7.242-14.064 17.373-24.095 31.388-31.077 10.525-5.244 16.804-6.858 29.542-7.593 24.35-1.404 41.081 5.182 60.484 23.81l8.511 8.171 7.731-7.417a4259.363 4259.363 0 0 1 18.557-17.646l10.824-10.229-1.992-2.798c-3.833-5.384-17.732-17.812-26.274-23.495-15.389-10.239-31.443-16.319-50.883-19.271-11.543-1.754-37.572-1.744-48 .016m12 .605c-52.554 3.931-95.134 36.876-111.474 86.253-5.029 15.194-6.845 27.482-6.825 46.171.065 61.121 30.087 105.762 82.673 122.927 30.572 9.98 73.998 9.227 107.121-1.856 13.402-4.485 28.417-12.151 38.63-19.724l7.875-5.839V1861h-93v40h45v38.044l-5.975 3.861c-14.048 9.08-29.476 12.643-51.025 11.785-9.261-.369-15.625-1.169-20.266-2.548-30.087-8.938-49.652-31.326-55.804-63.854-1.826-9.653-.683-34.977 1.992-44.151 7.167-24.575 20.078-41.142 39.489-50.672 13.282-6.522 19.571-7.915 35.589-7.882 24.001.048 37.696 5.845 57.144 24.192l6.858 6.469 8.249-7.606a2941.888 2941.888 0 0 0 17.571-16.372l9.321-8.766-8.821-8.841c-20.882-20.928-47.584-33.203-76.496-35.164-4.579-.311-10.351-.709-12.826-.885s-9.225.034-15 .466M161 1870v127h55.449c70.758 0 81.945-1.263 103.551-11.691 7.721-3.727 10.921-6.01 17.091-12.197 12.68-12.715 17.857-26.26 17.892-46.813.02-12.204-1.21-18.714-5.098-26.964-8.045-17.07-20.726-27.504-41.885-34.463-4.675-1.538-7.765-2.813-6.866-2.834s5.399-1.916 10-4.211c9.764-4.87 17.387-12.078 23.147-21.888 5.612-9.558 7.183-15.687 7.162-27.939-.026-15.406-3.825-26.978-12.431-37.865-11.101-14.044-31.472-23.515-56.176-26.117-5.135-.541-32.398-.991-60.586-1.001L161 1743zm253-.067V1997h54v-94h34.67l23.83 47 23.83 47h30.335c16.684 0 30.335-.138 30.335-.306s-12.6-22.949-28-50.623-28-50.424-28-50.555c0-.13 3.038-2.195 6.75-4.586 8.281-5.336 19.581-16.738 24.173-24.393 4.44-7.4 8.532-19.062 10.1-28.782 1.554-9.628.75-29.923-1.514-38.255-6.142-22.604-23.613-41.26-46.392-49.539-17.002-6.179-17.456-6.217-78.367-6.676l-55.75-.42zm250 .067v127h56v-254h-56zm487.494-125.75c-.244.688-19.399 53-42.568 116.25-23.168 63.25-43.869 119.844-46.001 125.765l-3.876 10.765 29.642-.265 29.643-.265 9.666-29 9.667-29 46.586-.26 46.586-.26 9.818 29.51 9.818 29.51h29.369c23.084 0 29.268-.268 28.892-1.25-.263-.687-20.524-57.05-45.024-125.25s-44.857-124.787-45.236-125.75c-.638-1.617-3.187-1.75-33.614-1.75-25.437 0-33.026.284-33.368 1.25M1359 1870.063v127.063l60.75-.404c56.906-.378 61.359-.536 70.377-2.484 30.064-6.496 50.685-16.774 67.452-33.621 16.669-16.747 26.887-37.029 31.549-62.617.874-4.793 1.35-14.718 1.32-27.5-.052-22.451-1.917-35.089-7.564-51.263-15.311-43.846-53.212-69.901-109.384-75.198-6.05-.571-34.287-1.038-62.75-1.038L1359 1743zm293-.063v127h160.511l5.786-23.25c3.183-12.787 5.768-23.588 5.745-24s-26.367-.75-58.542-.75H1707v-58h39.433c36.681 0 39.47-.122 39.975-1.75 1.374-4.427 11.592-43.493 11.592-44.319 0-.561-18.079-.931-45.5-.931H1707v-53l52.75-.004 52.75-.004 5.765-22.746c3.171-12.51 5.759-23.308 5.75-23.996-.012-.99-17.89-1.25-86.015-1.25h-86zm-1490 0v125h56.122c59.512 0 67.672-.49 84.878-5.095 9.711-2.6 22.032-8.635 29.118-14.265 7.045-5.596 15.15-17.551 17.92-26.434 4.176-13.39 4.142-34.602-.074-45.297-5.166-13.106-16.492-25.62-28.802-31.822-7.069-3.561-20.263-7.766-27.313-8.704l-5.349-.711 7-1.367c8.964-1.751 19.927-7.085 26.257-12.776 5.775-5.192 12.519-15.118 15.37-22.621 4.546-11.965 3.11-31.235-3.347-44.908-4.563-9.663-15.674-20.283-27.001-25.811-18.861-9.204-27.795-10.183-93.029-10.186L162 1745zm254 0v125h50v-94h37.842l23.796 47 23.796 47h56.664l-3.492-6.25c-1.92-3.437-14.481-26.024-27.912-50.192l-24.421-43.942 5.916-3.577c13.567-8.204 25.575-22.044 31.219-35.983 4.456-11.004 5.874-20.556 5.33-35.906-.547-15.424-2.033-21.986-7.504-33.15-5.217-10.646-18.629-24.053-29.734-29.726-20.437-10.44-27.049-11.261-90.75-11.268L416 1745zm250 0v125h52v-250h-52zm441.986-1.25a316748.655 316748.655 0 0 0-45.757 125c-.348.98 5.49 1.25 27.071 1.25h27.513l9.844-29.25 9.843-29.25h95.833l9.667 29 9.666 29 27.167.266c14.942.146 27.167-.018 27.167-.365s-20.097-56.604-44.66-125.016L1216.681 1745H1153.3zm253.014 1.236v125.14l60.25-.39c57.931-.376 60.635-.477 70.25-2.624 27.832-6.216 46.645-15.568 63.162-31.397 24.388-23.372 35.371-53.924 34.05-94.715-.582-17.973-2.273-29.293-6.298-42.171-11.333-36.258-38.651-61.714-77.51-72.227-21.466-5.807-21.87-5.837-85.154-6.313l-58.75-.443zm293 .014v125h78.433c73.834 0 78.463-.103 78.949-1.75 1.18-3.995 10.618-40.934 10.618-41.557 0-.372-26.213-.793-58.25-.935l-58.25-.258-.264-30.75-.265-30.75H1784.654l5.333-20.25c2.932-11.138 5.532-20.808 5.775-21.49.348-.972-9.344-1.296-44.909-1.5l-45.353-.26v-56l52.685-.259c49.082-.241 52.721-.378 53.2-2 1.189-4.027 10.615-40.929 10.615-41.556 0-.377-37.8-.685-84-.685h-84zm-1441-54.075V1848l21.25-.017c23.728-.02 31.589-1.139 39.951-5.687 9.979-5.428 15.549-16.804 14.479-29.571-.729-8.702-3.522-14.502-9.605-19.953-8.477-7.595-10.962-8.122-40.325-8.548l-25.75-.373zm2-.333v30.592l23.75-.397c22.009-.369 24.185-.569 29.691-2.736 8.085-3.181 14.88-10.027 16.984-17.11 4.61-15.522-.717-29.539-13.619-35.84-8.215-4.012-16.146-5.057-38.556-5.081L215 1785zm251 7.985v37.577l24.75-.362c22.838-.335 25.186-.536 30.397-2.611 7.955-3.166 14.128-8.962 18.066-16.963 3.113-6.323 3.287-7.259 3.287-17.697 0-9.818-.288-11.634-2.635-16.641-5.35-11.41-14.006-17.801-26.865-19.836-3.575-.566-15.613-1.032-26.75-1.036L466 1786zm2-.077v35.5h21.895c19.107 0 22.723-.256 28.403-2.01 8.254-2.55 15.48-8.802 19.402-16.787 2.551-5.197 2.8-6.679 2.8-16.703 0-12.664-1.824-18.124-8.299-24.836-8.427-8.736-16.451-10.664-44.385-10.664H468zm945 46.5v80.18l29.25-.423c25.99-.376 30.142-.664 37.25-2.58 37.616-10.142 57.44-39.649 55.168-82.118-1.337-24.993-9.178-43.533-23.905-56.524-6.513-5.745-20.654-12.851-31.263-15.712-7.108-1.916-11.26-2.204-37.25-2.58l-29.25-.423zm1 0v78.161l28.75-.402c25.617-.357 29.622-.638 36.75-2.574 13.485-3.663 23.743-9.366 32.492-18.064 15.762-15.67 21.96-34.223 20.722-62.024-1.042-23.392-6.822-38.193-20.192-51.704-6.376-6.444-9.766-8.958-16.522-12.256-15.605-7.617-20.532-8.44-53.25-8.896l-28.75-.402zm-246.5-25.353c-9.35 27.848-17.145 51.244-17.323 51.992-.268 1.128 5.6 1.361 34.25 1.361 19.015 0 34.573-.312 34.573-.694 0-.805-34.061-103.31-34.324-103.298-.097.004-7.826 22.792-17.176 50.639m.857 3.446L1152.214 1896H1216.841l-15.885-47.631c-8.736-26.197-16.013-47.755-16.17-47.907s-7.55 21.282-16.429 47.631M213 1920.5v36.5l25.25-.008c13.887-.004 28.136-.475 31.664-1.048 13.505-2.191 25.111-10.738 28.748-21.17 2.743-7.871 2.51-22.734-.454-28.85-3.368-6.95-8.413-12.222-15.112-15.792-9.74-5.192-16.366-6.095-44.846-6.115L213 1884zm2 0v34.5h24.816c13.692 0 27.477-.491 30.75-1.094 13.879-2.561 23.836-10.822 26.962-22.372 2.028-7.491 1.635-18.816-.861-24.787-2.157-5.163-9.276-12.515-14.858-15.344-8.99-4.556-15.365-5.372-42.059-5.388L215 1886z" fill="#fac51e"/></g></svg>